<svg width="660" height="580" viewBox="0 0 660 580" fill="none" xmlns="http://www.w3.org/2000/svg">
<g filter="url(#filter0_ddddiiiiii_183_2)">
<mask id="path-1-inside-1_183_2" fill="white">
<path fill-rule="evenodd" clip-rule="evenodd" d="M244.432 59.0298C203.859 65.815 170.014 87.3048 148.145 120.165C140.402 131.801 136.263 140.283 131.872 153.514C126.798 168.808 125.843 174.703 125.336 193.872L124.913 209.906C124.891 210.745 124.17 211.394 123.333 211.327L121.032 211.143C113.94 210.576 107.969 215.865 107.961 222.718L107.96 224.367C107.959 225.192 107.277 225.853 106.452 225.829L97.3731 225.561C88.4586 225.297 85.9561 225.54 81.5141 227.103C71.7835 230.527 65.9696 236.804 60.9439 249.311C58.3396 255.794 58.0423 257.479 58.0045 265.988C57.9649 274.835 58.1369 275.769 60.634 280.281C65.7534 289.529 76.5479 296.526 94.1302 301.992C102.193 304.499 104.089 305.524 111.209 311.224C127.938 324.618 147.367 336.226 167.862 345.073C181.219 350.837 198.683 355.409 215.143 357.448C226.665 358.876 247.7 359.18 256.724 358.048L260.792 357.539C261.403 357.463 261.997 357.777 262.277 358.325L266.513 366.605C269.417 372.28 270.951 376.261 270.521 377.008C270.138 377.675 267.862 380.905 265.461 384.189C263.061 387.473 261.098 390.998 261.098 392.025C261.098 395.14 287.964 423.341 304.337 437.412C307.557 440.18 311.926 443.32 314.043 444.391C319.17 446.983 329.854 447.765 340.408 446.322L347.813 445.31C348.306 445.242 348.8 445.43 349.124 445.809L351.767 448.899C365.249 464.66 392.918 475.792 426.649 479.023L436.85 480.001C437.38 480.052 437.841 480.387 438.053 480.875L440.784 487.163C446.505 500.338 454.728 511.56 462.052 516.187C473.953 523.704 492.359 523.959 505.53 516.788C516.918 510.588 523.252 501.642 523.949 490.774C524.778 477.845 520.696 456.733 514.953 444.239C511.027 435.702 512.402 435.661 516.837 444.182C524.496 458.894 535.445 470.117 545.991 474.065C565.82 481.49 590.286 472.508 599.11 454.562C601.921 448.845 602.055 448.099 601.989 438.633C601.931 430.563 601.459 427.179 599.473 420.587C596.555 410.904 587.349 391.498 581.352 382.389C569.207 363.941 561.686 359.856 530.505 354.772C522.791 353.516 515.398 352.268 514.075 352L513.503 351.885C512.571 351.697 512.063 350.683 512.47 349.823L514.739 345.035C518.847 336.369 521.781 324.599 521.04 319.755C519.922 312.449 516.221 305.296 506.309 291.289C505.253 289.796 505.982 289.141 514.326 284.089C528.255 275.657 539.7 266.692 551.337 255.098C560.118 246.348 563.004 244.063 568.673 241.369C599.373 226.779 607.252 210.067 594.605 186.365C590.481 178.635 584.595 172.415 578.637 169.49C574.613 167.514 573.03 167.287 563.774 167.351C556.529 167.402 552.263 167.864 549.586 168.889L547.721 169.602C546.769 169.967 545.746 169.271 545.734 168.251L545.726 167.465C545.657 161.32 540.785 156.922 534.047 156.927C524.845 156.932 514.646 166.342 504.721 183.98C498.97 194.202 498.027 195.385 493.059 198.614C479.089 207.69 434.958 225.159 428.017 224.359L426.786 224.217C426.057 224.133 425.503 223.523 425.49 222.789L425.369 215.875C425.183 205.312 423.316 198.216 418.056 188.08C415.054 182.297 412.078 178.167 407.9 173.988C402.657 168.744 401.857 167.471 400.814 162.719C399.264 155.66 394.135 141.916 389.881 133.427C376.911 107.537 353.064 84.2371 326.819 71.8106C316.266 66.8138 304.52 62.8384 292.933 60.3432C281.643 57.912 255.373 57.2007 244.432 59.0298ZM288.122 66.4343C307.073 69.4749 329.014 78.86 344.804 90.6789C354.514 97.9473 367.635 111.166 373.861 119.953C381.845 131.221 389.666 147.748 393.062 160.529L393.627 162.656C393.882 163.615 393.129 164.544 392.139 164.494L387.56 164.263C383.091 164.037 379.608 164.397 376.714 165.384C374.368 166.184 372.158 166.532 371.802 166.158C371.446 165.783 369.908 162.231 368.384 158.264C355.743 125.381 324.286 94.7841 289.028 81.0811C270.862 74.0209 256.21 71.3256 235.424 71.2192C222.452 71.1534 222.578 70.7045 236.42 67.6747C253.147 64.013 270.445 63.5984 288.122 66.4343ZM263.009 80.3068C309.122 89.6873 348.286 122.547 363.767 164.844L365.532 169.666C365.724 170.19 365.601 170.778 365.214 171.181L363.299 173.183C361.898 174.646 360.496 175.843 360.184 175.843C359.872 175.843 358.885 173.511 357.993 170.659C348.399 140.038 322.668 111.596 291.275 96.9107C262.599 83.497 229.122 81.1839 200.319 90.6257C187.079 94.9662 175.873 101.143 167.492 108.72C165.466 110.551 163.809 111.636 163.809 111.131C163.809 109.443 180.925 93.9782 188.402 88.9121C197.236 82.9264 206.888 79.985 223.713 78.1496C232.012 77.2446 253.85 78.4435 263.009 80.3068ZM249.837 103.887C257.557 105.045 271.092 109.381 275.447 112.091V112.091C276.454 112.718 276.066 114.267 274.883 114.347L269.655 114.697C229.277 117.403 195.463 130.213 176.801 149.875C169.174 157.91 166.434 162.463 162.936 172.913C158.495 186.177 157.253 196.773 157.751 217.157C157.989 226.909 158.465 235.902 158.809 237.142C159.419 239.336 159.372 239.324 157.035 236.691C151.591 230.557 145.965 220.796 143.452 213.122C141.082 205.886 140.84 204.002 140.861 192.97C140.882 182.061 141.178 179.774 143.72 170.885C147.733 156.861 151.963 147.373 158.758 137.159C168.148 123.044 178.807 114.408 193.329 109.149C212.187 102.319 228.972 100.756 249.837 103.887ZM328.5 162.114C337.599 168.229 341.25 180.327 336.86 189.815C329.562 205.591 308.92 202.767 303.844 185.297C301.103 175.861 304.899 165.237 312.43 161.27C317.283 158.714 323.963 159.065 328.5 162.114ZM537.696 165.071C538.986 166.362 539.36 167.519 538.933 168.903C538.012 171.892 535.824 175.974 533.507 179.025C529.805 183.9 529.64 185.48 532.064 192.905C534.163 199.332 534.82 207.956 533.848 216.317C533.37 220.428 535.819 219.356 538.098 214.457C540.869 208.5 541.083 200.525 538.702 191.933L537.242 186.665C537.121 186.23 537.208 185.764 537.476 185.402L539.637 182.487C545.664 174.358 565.993 170.531 575.996 175.643C581.216 178.31 585.895 183.898 589.97 192.33C592.938 198.47 593.501 200.547 593.501 205.347C593.501 217.385 586.393 225.14 566.466 234.845C559.636 238.171 556.636 240.384 549.041 247.693C537.708 258.599 528.102 266.382 516.835 273.788C506.309 280.706 491.483 288.525 488.89 288.525C485.72 288.525 476.733 282.432 471.867 276.984C462.137 266.09 458.049 253.752 457.976 235.064L457.931 223.602C457.929 223.007 458.286 222.471 458.835 222.243L468.548 218.221C482.851 212.297 497.748 204.339 501.717 200.502C503.505 198.772 507.559 192.633 510.725 186.859C518.508 172.664 527.746 163.404 534.272 163.258C535.138 163.239 536.68 164.055 537.696 165.071ZM396.099 173.311V173.311C397.367 173.929 397.074 175.814 395.678 176.017L395.331 176.068C388.358 177.088 383.628 179.653 378.267 185.325C366.417 197.864 362.08 218.929 367.597 237.142C370.365 246.281 375.714 253.882 382.258 257.979V257.979C383.036 258.466 382.69 259.668 381.772 259.667L380.907 259.665C372.727 259.655 362.345 252.084 357.513 242.605C352.427 232.629 350.565 214.639 353.445 203.301C355.606 194.796 360.868 184.957 365.973 179.879C375.223 170.677 385.915 168.345 396.099 173.311ZM404.736 185.103C409.237 187.653 413.511 193.229 416.102 199.928C419.107 207.695 419.128 223.316 416.146 232.423C412.134 244.681 403.986 253.018 395.034 254.028C385.295 255.127 376.305 245.626 373.196 230.95C371.445 222.681 371.588 216.109 373.701 207.841C378.648 188.487 392.631 178.242 404.736 185.103ZM333.117 211.596C335.715 214.902 336.272 217.758 334.943 220.968C332.831 226.07 328.15 226.855 324.086 222.788C318.929 217.628 321.469 209.197 328.178 209.197C330.411 209.197 331.737 209.841 333.117 211.596ZM124.038 218.299C125.599 218.844 126.875 219.826 126.875 220.481C126.875 224.7 134.036 245.498 138.973 255.621C151.022 280.327 167.421 298.396 191.059 313.015C195.89 316.004 199.842 318.639 199.842 318.874C199.842 321.566 186.84 335.141 180.623 338.939C177.473 340.864 176.841 340.952 173.417 339.947C167.297 338.15 145.191 326.67 134.532 319.753C129.082 316.215 120.548 310.053 115.566 306.058C107.258 299.394 105.732 298.549 97.0993 295.824C74.3544 288.644 63.8175 279.35 63.8175 266.464C63.8175 261.659 66.2254 252.998 69.2026 247.096C75.8975 233.826 88.2343 229.206 106.59 233.098C111.739 234.189 113.493 235.046 116.271 237.825L119.144 240.701C119.471 241.027 119.624 241.489 119.557 241.946L118.602 248.508C117.698 254.71 117.758 256.682 119.003 261.727C120.682 268.537 123.905 274.074 126.199 274.09C128.004 274.103 128.133 273.357 126.893 270.092C124.275 263.203 124.163 256.56 126.434 242.98C127.019 239.477 126.84 239.13 121.199 232.835C114.29 225.123 113.306 222.502 116.176 219.446C118.411 217.064 119.883 216.85 124.038 218.299ZM450.27 230.63C450.27 244.136 453.127 257.469 458.389 268.529C461.196 274.428 463.451 277.52 468.951 283.015C472.797 286.857 476.956 290.629 478.193 291.399C480.405 292.774 480.275 292.851 470.398 296.047C459.289 299.641 441.787 303.418 428.65 305.057C422.154 305.868 420.093 306.448 420.093 307.466C420.093 308.443 421.316 308.871 424.597 309.042C430.814 309.368 432.497 309.833 435.226 311.982L436.763 313.191C437.258 313.581 437.448 314.243 437.236 314.836L435.26 320.34C427.224 342.724 413.173 360.068 394.284 370.92L391.262 372.656C390.602 373.036 389.762 372.846 389.329 372.22L383.364 363.603C376.142 353.171 374.825 351.74 370.367 349.482C365.251 346.889 359.682 347.628 343.817 353.006C322.287 360.305 281.486 372.36 278.31 372.36C277.184 372.36 271.816 364.216 265.095 352.309C260.256 343.734 258.063 342.221 258.55 347.795L258.717 349.706C258.788 350.516 258.185 351.228 257.375 351.293L250.288 351.858C233.846 353.168 209.833 350.818 192.914 346.242L188.255 344.981C187.111 344.672 186.79 343.202 187.7 342.444L190.662 339.976C196.9 334.78 200.922 330.275 203.644 325.44C206.004 321.248 205.176 321.226 218.429 325.837C235.148 331.655 243.971 333.064 263.8 333.091C278.555 333.109 283 332.785 291.577 331.06C319.589 325.426 342.927 312.933 363.449 292.587C369.454 286.634 376.655 278.456 379.453 274.413C384.196 267.559 384.834 266.991 388.904 266.014C394.814 264.596 407.491 257.085 412.328 252.138C414.498 249.919 417.954 244.776 420.007 240.71L423.46 233.874C423.64 233.518 423.958 233.251 424.339 233.134L436.33 229.472C443.254 227.357 449.223 225.581 449.595 225.525C449.967 225.469 450.27 227.766 450.27 230.63ZM357.461 255.709C357.475 256.253 355.228 260.297 352.469 264.696C331.62 297.927 297.942 317.622 255.917 321.161C231.671 323.203 218.458 320.417 198.663 309.094C190.287 304.303 188.815 302.662 195.435 305.499C201.978 308.302 215.049 311.833 224.614 313.384C235.678 315.177 261.607 314.656 271.457 312.443C288.083 308.706 305.787 300.723 318.578 291.195C331.047 281.905 343.524 267.109 349.941 253.997L351.506 250.802C351.973 249.847 353.269 249.693 353.947 250.511L354.969 251.743C356.326 253.38 357.448 255.165 357.461 255.709ZM365.616 261.952C366.45 262.708 369.203 264.055 371.732 264.947L374.561 265.944C375.461 266.261 375.822 267.338 375.295 268.133L373.09 271.462C368.461 278.445 350.261 296.236 341.382 302.455C323.194 315.195 300.011 323.912 279.114 325.868V325.868C278.496 325.926 278.335 325.037 278.934 324.874L281.482 324.181C315.033 315.059 341.76 295.638 358.508 268.213C361.072 264.015 363.379 260.579 363.635 260.579C363.89 260.579 364.782 261.197 365.616 261.952ZM505.064 301.37C514.089 314.769 515.606 320.464 512.908 330.814C511.73 335.334 506.245 347.996 504.739 349.673C504.591 349.839 501.294 349.11 497.413 348.055C488.585 345.653 475.283 339.188 470.539 334.991L470.462 334.923C469.984 334.5 470.512 333.746 471.073 334.051V334.051C479.716 338.744 488.802 337.629 496.396 330.939C505.881 322.585 508.281 311.323 502.896 300.441C501.371 297.358 500.244 294.835 500.392 294.835C500.54 294.835 502.642 297.776 505.064 301.37ZM495.279 300.773C499.337 307.474 499.88 313.468 496.946 319.174C494.877 323.199 494.826 323.23 490.331 323.121C484.208 322.974 477.408 319.397 470.341 312.605C461.965 304.557 463.134 308.656 471.665 317.25C476.312 321.932 480.076 324.861 482.921 326.011C487.761 327.966 488.218 328.801 484.903 329.634C478.547 331.23 469.188 326.487 465.546 319.822C462.841 314.872 459.82 311.436 456.202 309.192L455.862 308.981C455.027 308.464 455.243 307.194 456.202 306.981V306.981C463.342 305.395 481.065 300.069 485.853 298.069C488.825 296.828 491.476 295.796 491.743 295.774C492.01 295.753 493.601 298.002 495.279 300.773ZM456.703 318.355C459.895 322.071 460.322 324.941 458.78 332.332C454.684 351.962 446.838 366.863 433.646 380.064C421.377 392.341 409.944 398.559 398.423 399.218C392.63 399.55 391.824 399.377 389.307 397.258C385.849 394.346 384.305 390.702 384.674 386.326C384.954 383.007 385.159 382.831 393.995 378.303C408.88 370.675 420.823 360.076 429.645 346.664C435.688 337.478 436.494 335.73 443.315 317.064C443.83 315.655 445.099 314.18 446.135 313.786C448.748 312.791 453.8 314.975 456.703 318.355ZM473.743 345.308C480.058 349.171 490.729 353.385 500.258 355.78L505.307 357.05C505.808 357.176 506.206 357.557 506.353 358.053L507.488 361.876C513.838 383.272 512.456 403.179 503.744 415.831C499.722 421.673 492.633 428.067 487.204 430.75C483.336 432.662 481.167 433.151 477.309 432.98C469.823 432.647 462.413 431.12 453.141 427.999C447.479 426.094 444.374 425.455 443.59 426.037C442.95 426.51 440.442 428.394 438.016 430.222C432.83 434.13 423.022 439.079 416.039 441.311C410.257 443.159 408.978 444.081 410.323 445.427C412.363 447.468 432.372 441.066 441.504 435.451L445.222 433.165C445.589 432.94 446.037 432.887 446.447 433.022L452.99 435.18C456.944 436.484 460.179 437.847 460.179 438.209C460.179 438.572 458.374 441.324 456.167 444.323C448.655 454.535 437.18 461.663 421.83 465.654C407.594 469.356 398.872 468.549 383.644 462.123C377.528 459.541 361.089 449.627 361.089 448.519C361.089 448.327 364.534 448.413 368.746 448.71C376.026 449.225 376.403 449.161 376.403 447.415C376.403 445.917 375.319 445.285 370.547 443.992C367.327 443.119 364.692 442.125 364.692 441.782C364.692 441.438 366.82 440.667 369.421 440.069C372.023 439.47 378.812 437.265 384.51 435.169C392.965 432.058 396.821 429.972 405.486 423.826C411.324 419.685 416.696 415.447 417.422 414.41C419.114 411.99 419.093 409.202 417.348 405.023C416.581 403.187 416.316 401.565 416.757 401.417C417.198 401.27 420.765 399.053 424.681 396.489C441.693 385.355 456.648 364.911 462.581 344.676C464.146 339.333 464.304 339.138 466.029 340.386C467.023 341.106 470.495 343.321 473.743 345.308ZM369.568 355.549C370.778 356.342 374.597 361.14 378.055 366.212C384.152 375.152 384.283 375.462 382.4 376.401C379.728 377.734 378.105 381.499 377.914 386.808C377.826 389.266 377.704 391.279 377.642 391.283C377.581 391.287 374.37 387.537 370.507 382.952C363.6 374.752 362.312 373.42 358.955 370.999C357.355 369.846 357.343 369.575 358.73 365.504C360.808 359.402 360.651 359.322 356.12 364.169C352.426 368.121 350.874 368.953 339.277 373.205C318.72 380.742 298.609 385.217 279.603 386.482L273.774 386.87C272.532 386.952 271.761 385.545 272.498 384.542L273.511 383.164L276.086 379.659C276.281 379.394 276.56 379.202 276.877 379.114L293.29 374.588C313.737 368.949 339.54 360.935 351.18 356.606C360.446 353.16 365.483 352.87 369.568 355.549ZM528.916 361.067C553.301 365.038 561.8 368.312 568.589 376.347C580.02 389.878 591.387 412.883 594.774 429.339C596.547 437.954 596.565 441.13 594.872 446.832C590.472 461.657 575.914 470.616 558.038 469.5C548.435 468.901 541.596 465.515 534.503 457.848C530.205 453.202 520.534 438.873 520.534 437.149C520.534 436.797 522.662 435.807 525.264 434.949C535.983 431.418 546.862 421.437 552.458 409.999C558.244 398.174 556.532 394.333 550.232 405.003C544.87 414.083 536.67 421.949 528.47 425.874C522.257 428.849 506.107 432.757 500.025 432.757C497.71 432.757 497.79 432.589 502.271 428.024C517.128 412.889 521.757 390.655 515.313 365.373C514.396 361.779 514.002 358.838 514.437 358.838C514.871 358.838 521.387 359.841 528.916 361.067ZM355.646 375.945C356.55 376.43 360.647 380.79 364.75 385.635C368.852 390.481 377.376 399.719 383.69 406.164C390.006 412.61 395.254 418.492 395.353 419.235C395.762 422.305 395.205 423.776 393.113 425.148C390.522 426.846 368.008 434.56 365.641 434.56C363.931 434.56 348.616 419.526 347.2 416.457C346.623 415.209 346.828 413.708 347.876 411.511C349.638 407.813 349.791 404.568 348.331 401.823C347.756 400.74 344.273 395.869 340.591 390.998C336.91 386.128 334.161 381.877 334.485 381.554C335.405 380.633 350.538 375.191 352.365 375.124C353.264 375.091 354.741 375.461 355.646 375.945ZM337.14 393.621C341.394 399.365 344.868 404.741 344.86 405.566C344.853 406.39 344.282 408.688 343.591 410.671C341.572 416.468 342.604 418.812 351.021 427.549C355.486 432.184 358.347 435.833 357.865 436.275C356.766 437.283 343.233 439.933 335.866 440.582L334.236 440.725C332.85 440.847 332.091 439.149 333.107 438.198L333.504 437.827C336.767 434.773 336.958 434.313 336.405 430.858C335.665 426.224 334.254 423.482 329.54 417.515C325.326 412.18 318.634 407.516 315.191 407.516C313.856 407.516 310.051 409.525 306.152 412.287C300.642 416.192 299.244 417.683 298.455 420.497L298.184 421.463C297.878 422.555 296.499 422.899 295.715 422.078L283.123 408.881C275.22 400.6 268.639 393.519 268.5 393.144C268.359 392.769 273.832 392.221 280.661 391.927C293.914 391.355 309.005 388.909 320.343 385.493C324.174 384.339 327.78 383.346 328.357 383.286C328.935 383.226 332.887 387.877 337.14 393.621ZM411.503 406.555C413.279 409.876 412.478 411.529 407.374 415.075C403.355 417.867 402.173 418.324 401.543 417.329C401.108 416.642 400.747 415.761 400.738 415.371C400.731 414.98 398.864 412.85 396.588 410.638L394.968 409.062C394.036 408.155 394.661 406.574 395.961 406.549L397.264 406.525C399.911 406.475 403.09 406.11 404.328 405.713C408.213 404.469 410.533 404.741 411.503 406.555ZM321.678 417.3C324.731 420.24 325.957 422.126 325.957 423.88C325.957 427.869 324.636 427.585 320.531 422.713C318.404 420.188 315.228 417.523 313.474 416.79L312.637 416.439C311.594 416.004 311.418 414.602 312.319 413.921L312.435 413.833C315.17 411.769 316.422 412.238 321.678 417.3ZM310.272 420.94C314.864 423.742 316.742 434.31 312.909 435.782C310.371 436.757 303.436 427.407 303.436 423.01C303.436 418.718 305.571 418.072 310.272 420.94ZM488.105 440.29C493.802 440.271 499.915 439.983 501.689 439.65C504.863 439.053 504.951 439.119 507.277 443.788C511.232 451.73 513.203 457.55 515.061 466.766C517.586 479.296 518.321 490.275 516.924 494.6C514.289 502.757 505.484 510.566 495.442 513.653C487.96 515.953 476.297 515.73 470.666 513.18C462.471 509.469 455.452 501.674 449.386 489.549C443.891 478.567 443.787 479.233 451.366 476.941C464.674 472.918 478.392 463.963 476.962 460.232C476.464 458.934 476.025 459.05 473.561 461.124C469.759 464.325 463.747 467.289 456.126 469.718C451.271 471.266 447.022 471.81 437.659 472.082C428.195 472.357 425.997 472.213 427.75 471.429C442.413 464.882 448.651 461.231 454.613 455.707C458.162 452.42 462.557 447.31 464.382 444.353L467.199 439.785C467.502 439.293 468.067 439.026 468.639 439.103L472.721 439.65C475.484 440.021 482.407 440.309 488.105 440.29Z"/>
</mask>
<path fill-rule="evenodd" clip-rule="evenodd" d="M244.432 59.0298C203.859 65.815 170.014 87.3048 148.145 120.165C140.402 131.801 136.263 140.283 131.872 153.514C126.798 168.808 125.843 174.703 125.336 193.872L124.913 209.906C124.891 210.745 124.17 211.394 123.333 211.327L121.032 211.143C113.94 210.576 107.969 215.865 107.961 222.718L107.96 224.367C107.959 225.192 107.277 225.853 106.452 225.829L97.3731 225.561C88.4586 225.297 85.9561 225.54 81.5141 227.103C71.7835 230.527 65.9696 236.804 60.9439 249.311C58.3396 255.794 58.0423 257.479 58.0045 265.988C57.9649 274.835 58.1369 275.769 60.634 280.281C65.7534 289.529 76.5479 296.526 94.1302 301.992C102.193 304.499 104.089 305.524 111.209 311.224C127.938 324.618 147.367 336.226 167.862 345.073C181.219 350.837 198.683 355.409 215.143 357.448C226.665 358.876 247.7 359.18 256.724 358.048L260.792 357.539C261.403 357.463 261.997 357.777 262.277 358.325L266.513 366.605C269.417 372.28 270.951 376.261 270.521 377.008C270.138 377.675 267.862 380.905 265.461 384.189C263.061 387.473 261.098 390.998 261.098 392.025C261.098 395.14 287.964 423.341 304.337 437.412C307.557 440.18 311.926 443.32 314.043 444.391C319.17 446.983 329.854 447.765 340.408 446.322L347.813 445.31C348.306 445.242 348.8 445.43 349.124 445.809L351.767 448.899C365.249 464.66 392.918 475.792 426.649 479.023L436.85 480.001C437.38 480.052 437.841 480.387 438.053 480.875L440.784 487.163C446.505 500.338 454.728 511.56 462.052 516.187C473.953 523.704 492.359 523.959 505.53 516.788C516.918 510.588 523.252 501.642 523.949 490.774C524.778 477.845 520.696 456.733 514.953 444.239C511.027 435.702 512.402 435.661 516.837 444.182C524.496 458.894 535.445 470.117 545.991 474.065C565.82 481.49 590.286 472.508 599.11 454.562C601.921 448.845 602.055 448.099 601.989 438.633C601.931 430.563 601.459 427.179 599.473 420.587C596.555 410.904 587.349 391.498 581.352 382.389C569.207 363.941 561.686 359.856 530.505 354.772C522.791 353.516 515.398 352.268 514.075 352L513.503 351.885C512.571 351.697 512.063 350.683 512.47 349.823L514.739 345.035C518.847 336.369 521.781 324.599 521.04 319.755C519.922 312.449 516.221 305.296 506.309 291.289C505.253 289.796 505.982 289.141 514.326 284.089C528.255 275.657 539.7 266.692 551.337 255.098C560.118 246.348 563.004 244.063 568.673 241.369C599.373 226.779 607.252 210.067 594.605 186.365C590.481 178.635 584.595 172.415 578.637 169.49C574.613 167.514 573.03 167.287 563.774 167.351C556.529 167.402 552.263 167.864 549.586 168.889L547.721 169.602C546.769 169.967 545.746 169.271 545.734 168.251L545.726 167.465C545.657 161.32 540.785 156.922 534.047 156.927C524.845 156.932 514.646 166.342 504.721 183.98C498.97 194.202 498.027 195.385 493.059 198.614C479.089 207.69 434.958 225.159 428.017 224.359L426.786 224.217C426.057 224.133 425.503 223.523 425.49 222.789L425.369 215.875C425.183 205.312 423.316 198.216 418.056 188.08C415.054 182.297 412.078 178.167 407.9 173.988C402.657 168.744 401.857 167.471 400.814 162.719C399.264 155.66 394.135 141.916 389.881 133.427C376.911 107.537 353.064 84.2371 326.819 71.8106C316.266 66.8138 304.52 62.8384 292.933 60.3432C281.643 57.912 255.373 57.2007 244.432 59.0298ZM288.122 66.4343C307.073 69.4749 329.014 78.86 344.804 90.6789C354.514 97.9473 367.635 111.166 373.861 119.953C381.845 131.221 389.666 147.748 393.062 160.529L393.627 162.656C393.882 163.615 393.129 164.544 392.139 164.494L387.56 164.263C383.091 164.037 379.608 164.397 376.714 165.384C374.368 166.184 372.158 166.532 371.802 166.158C371.446 165.783 369.908 162.231 368.384 158.264C355.743 125.381 324.286 94.7841 289.028 81.0811C270.862 74.0209 256.21 71.3256 235.424 71.2192C222.452 71.1534 222.578 70.7045 236.42 67.6747C253.147 64.013 270.445 63.5984 288.122 66.4343ZM263.009 80.3068C309.122 89.6873 348.286 122.547 363.767 164.844L365.532 169.666C365.724 170.19 365.601 170.778 365.214 171.181L363.299 173.183C361.898 174.646 360.496 175.843 360.184 175.843C359.872 175.843 358.885 173.511 357.993 170.659C348.399 140.038 322.668 111.596 291.275 96.9107C262.599 83.497 229.122 81.1839 200.319 90.6257C187.079 94.9662 175.873 101.143 167.492 108.72C165.466 110.551 163.809 111.636 163.809 111.131C163.809 109.443 180.925 93.9782 188.402 88.9121C197.236 82.9264 206.888 79.985 223.713 78.1496C232.012 77.2446 253.85 78.4435 263.009 80.3068ZM249.837 103.887C257.557 105.045 271.092 109.381 275.447 112.091V112.091C276.454 112.718 276.066 114.267 274.883 114.347L269.655 114.697C229.277 117.403 195.463 130.213 176.801 149.875C169.174 157.91 166.434 162.463 162.936 172.913C158.495 186.177 157.253 196.773 157.751 217.157C157.989 226.909 158.465 235.902 158.809 237.142C159.419 239.336 159.372 239.324 157.035 236.691C151.591 230.557 145.965 220.796 143.452 213.122C141.082 205.886 140.84 204.002 140.861 192.97C140.882 182.061 141.178 179.774 143.72 170.885C147.733 156.861 151.963 147.373 158.758 137.159C168.148 123.044 178.807 114.408 193.329 109.149C212.187 102.319 228.972 100.756 249.837 103.887ZM328.5 162.114C337.599 168.229 341.25 180.327 336.86 189.815C329.562 205.591 308.92 202.767 303.844 185.297C301.103 175.861 304.899 165.237 312.43 161.27C317.283 158.714 323.963 159.065 328.5 162.114ZM537.696 165.071C538.986 166.362 539.36 167.519 538.933 168.903C538.012 171.892 535.824 175.974 533.507 179.025C529.805 183.9 529.64 185.48 532.064 192.905C534.163 199.332 534.82 207.956 533.848 216.317C533.37 220.428 535.819 219.356 538.098 214.457C540.869 208.5 541.083 200.525 538.702 191.933L537.242 186.665C537.121 186.23 537.208 185.764 537.476 185.402L539.637 182.487C545.664 174.358 565.993 170.531 575.996 175.643C581.216 178.31 585.895 183.898 589.97 192.33C592.938 198.47 593.501 200.547 593.501 205.347C593.501 217.385 586.393 225.14 566.466 234.845C559.636 238.171 556.636 240.384 549.041 247.693C537.708 258.599 528.102 266.382 516.835 273.788C506.309 280.706 491.483 288.525 488.89 288.525C485.72 288.525 476.733 282.432 471.867 276.984C462.137 266.09 458.049 253.752 457.976 235.064L457.931 223.602C457.929 223.007 458.286 222.471 458.835 222.243L468.548 218.221C482.851 212.297 497.748 204.339 501.717 200.502C503.505 198.772 507.559 192.633 510.725 186.859C518.508 172.664 527.746 163.404 534.272 163.258C535.138 163.239 536.68 164.055 537.696 165.071ZM396.099 173.311V173.311C397.367 173.929 397.074 175.814 395.678 176.017L395.331 176.068C388.358 177.088 383.628 179.653 378.267 185.325C366.417 197.864 362.08 218.929 367.597 237.142C370.365 246.281 375.714 253.882 382.258 257.979V257.979C383.036 258.466 382.69 259.668 381.772 259.667L380.907 259.665C372.727 259.655 362.345 252.084 357.513 242.605C352.427 232.629 350.565 214.639 353.445 203.301C355.606 194.796 360.868 184.957 365.973 179.879C375.223 170.677 385.915 168.345 396.099 173.311ZM404.736 185.103C409.237 187.653 413.511 193.229 416.102 199.928C419.107 207.695 419.128 223.316 416.146 232.423C412.134 244.681 403.986 253.018 395.034 254.028C385.295 255.127 376.305 245.626 373.196 230.95C371.445 222.681 371.588 216.109 373.701 207.841C378.648 188.487 392.631 178.242 404.736 185.103ZM333.117 211.596C335.715 214.902 336.272 217.758 334.943 220.968C332.831 226.07 328.15 226.855 324.086 222.788C318.929 217.628 321.469 209.197 328.178 209.197C330.411 209.197 331.737 209.841 333.117 211.596ZM124.038 218.299C125.599 218.844 126.875 219.826 126.875 220.481C126.875 224.7 134.036 245.498 138.973 255.621C151.022 280.327 167.421 298.396 191.059 313.015C195.89 316.004 199.842 318.639 199.842 318.874C199.842 321.566 186.84 335.141 180.623 338.939C177.473 340.864 176.841 340.952 173.417 339.947C167.297 338.15 145.191 326.67 134.532 319.753C129.082 316.215 120.548 310.053 115.566 306.058C107.258 299.394 105.732 298.549 97.0993 295.824C74.3544 288.644 63.8175 279.35 63.8175 266.464C63.8175 261.659 66.2254 252.998 69.2026 247.096C75.8975 233.826 88.2343 229.206 106.59 233.098C111.739 234.189 113.493 235.046 116.271 237.825L119.144 240.701C119.471 241.027 119.624 241.489 119.557 241.946L118.602 248.508C117.698 254.71 117.758 256.682 119.003 261.727C120.682 268.537 123.905 274.074 126.199 274.09C128.004 274.103 128.133 273.357 126.893 270.092C124.275 263.203 124.163 256.56 126.434 242.98C127.019 239.477 126.84 239.13 121.199 232.835C114.29 225.123 113.306 222.502 116.176 219.446C118.411 217.064 119.883 216.85 124.038 218.299ZM450.27 230.63C450.27 244.136 453.127 257.469 458.389 268.529C461.196 274.428 463.451 277.52 468.951 283.015C472.797 286.857 476.956 290.629 478.193 291.399C480.405 292.774 480.275 292.851 470.398 296.047C459.289 299.641 441.787 303.418 428.65 305.057C422.154 305.868 420.093 306.448 420.093 307.466C420.093 308.443 421.316 308.871 424.597 309.042C430.814 309.368 432.497 309.833 435.226 311.982L436.763 313.191C437.258 313.581 437.448 314.243 437.236 314.836L435.26 320.34C427.224 342.724 413.173 360.068 394.284 370.92L391.262 372.656C390.602 373.036 389.762 372.846 389.329 372.22L383.364 363.603C376.142 353.171 374.825 351.74 370.367 349.482C365.251 346.889 359.682 347.628 343.817 353.006C322.287 360.305 281.486 372.36 278.31 372.36C277.184 372.36 271.816 364.216 265.095 352.309C260.256 343.734 258.063 342.221 258.55 347.795L258.717 349.706C258.788 350.516 258.185 351.228 257.375 351.293L250.288 351.858C233.846 353.168 209.833 350.818 192.914 346.242L188.255 344.981C187.111 344.672 186.79 343.202 187.7 342.444L190.662 339.976C196.9 334.78 200.922 330.275 203.644 325.44C206.004 321.248 205.176 321.226 218.429 325.837C235.148 331.655 243.971 333.064 263.8 333.091C278.555 333.109 283 332.785 291.577 331.06C319.589 325.426 342.927 312.933 363.449 292.587C369.454 286.634 376.655 278.456 379.453 274.413C384.196 267.559 384.834 266.991 388.904 266.014C394.814 264.596 407.491 257.085 412.328 252.138C414.498 249.919 417.954 244.776 420.007 240.71L423.46 233.874C423.64 233.518 423.958 233.251 424.339 233.134L436.33 229.472C443.254 227.357 449.223 225.581 449.595 225.525C449.967 225.469 450.27 227.766 450.27 230.63ZM357.461 255.709C357.475 256.253 355.228 260.297 352.469 264.696C331.62 297.927 297.942 317.622 255.917 321.161C231.671 323.203 218.458 320.417 198.663 309.094C190.287 304.303 188.815 302.662 195.435 305.499C201.978 308.302 215.049 311.833 224.614 313.384C235.678 315.177 261.607 314.656 271.457 312.443C288.083 308.706 305.787 300.723 318.578 291.195C331.047 281.905 343.524 267.109 349.941 253.997L351.506 250.802C351.973 249.847 353.269 249.693 353.947 250.511L354.969 251.743C356.326 253.38 357.448 255.165 357.461 255.709ZM365.616 261.952C366.45 262.708 369.203 264.055 371.732 264.947L374.561 265.944C375.461 266.261 375.822 267.338 375.295 268.133L373.09 271.462C368.461 278.445 350.261 296.236 341.382 302.455C323.194 315.195 300.011 323.912 279.114 325.868V325.868C278.496 325.926 278.335 325.037 278.934 324.874L281.482 324.181C315.033 315.059 341.76 295.638 358.508 268.213C361.072 264.015 363.379 260.579 363.635 260.579C363.89 260.579 364.782 261.197 365.616 261.952ZM505.064 301.37C514.089 314.769 515.606 320.464 512.908 330.814C511.73 335.334 506.245 347.996 504.739 349.673C504.591 349.839 501.294 349.11 497.413 348.055C488.585 345.653 475.283 339.188 470.539 334.991L470.462 334.923C469.984 334.5 470.512 333.746 471.073 334.051V334.051C479.716 338.744 488.802 337.629 496.396 330.939C505.881 322.585 508.281 311.323 502.896 300.441C501.371 297.358 500.244 294.835 500.392 294.835C500.54 294.835 502.642 297.776 505.064 301.37ZM495.279 300.773C499.337 307.474 499.88 313.468 496.946 319.174C494.877 323.199 494.826 323.23 490.331 323.121C484.208 322.974 477.408 319.397 470.341 312.605C461.965 304.557 463.134 308.656 471.665 317.25C476.312 321.932 480.076 324.861 482.921 326.011C487.761 327.966 488.218 328.801 484.903 329.634C478.547 331.23 469.188 326.487 465.546 319.822C462.841 314.872 459.82 311.436 456.202 309.192L455.862 308.981C455.027 308.464 455.243 307.194 456.202 306.981V306.981C463.342 305.395 481.065 300.069 485.853 298.069C488.825 296.828 491.476 295.796 491.743 295.774C492.01 295.753 493.601 298.002 495.279 300.773ZM456.703 318.355C459.895 322.071 460.322 324.941 458.78 332.332C454.684 351.962 446.838 366.863 433.646 380.064C421.377 392.341 409.944 398.559 398.423 399.218C392.63 399.55 391.824 399.377 389.307 397.258C385.849 394.346 384.305 390.702 384.674 386.326C384.954 383.007 385.159 382.831 393.995 378.303C408.88 370.675 420.823 360.076 429.645 346.664C435.688 337.478 436.494 335.73 443.315 317.064C443.83 315.655 445.099 314.18 446.135 313.786C448.748 312.791 453.8 314.975 456.703 318.355ZM473.743 345.308C480.058 349.171 490.729 353.385 500.258 355.78L505.307 357.05C505.808 357.176 506.206 357.557 506.353 358.053L507.488 361.876C513.838 383.272 512.456 403.179 503.744 415.831C499.722 421.673 492.633 428.067 487.204 430.75C483.336 432.662 481.167 433.151 477.309 432.98C469.823 432.647 462.413 431.12 453.141 427.999C447.479 426.094 444.374 425.455 443.59 426.037C442.95 426.51 440.442 428.394 438.016 430.222C432.83 434.13 423.022 439.079 416.039 441.311C410.257 443.159 408.978 444.081 410.323 445.427C412.363 447.468 432.372 441.066 441.504 435.451L445.222 433.165C445.589 432.94 446.037 432.887 446.447 433.022L452.99 435.18C456.944 436.484 460.179 437.847 460.179 438.209C460.179 438.572 458.374 441.324 456.167 444.323C448.655 454.535 437.18 461.663 421.83 465.654C407.594 469.356 398.872 468.549 383.644 462.123C377.528 459.541 361.089 449.627 361.089 448.519C361.089 448.327 364.534 448.413 368.746 448.71C376.026 449.225 376.403 449.161 376.403 447.415C376.403 445.917 375.319 445.285 370.547 443.992C367.327 443.119 364.692 442.125 364.692 441.782C364.692 441.438 366.82 440.667 369.421 440.069C372.023 439.47 378.812 437.265 384.51 435.169C392.965 432.058 396.821 429.972 405.486 423.826C411.324 419.685 416.696 415.447 417.422 414.41C419.114 411.99 419.093 409.202 417.348 405.023C416.581 403.187 416.316 401.565 416.757 401.417C417.198 401.27 420.765 399.053 424.681 396.489C441.693 385.355 456.648 364.911 462.581 344.676C464.146 339.333 464.304 339.138 466.029 340.386C467.023 341.106 470.495 343.321 473.743 345.308ZM369.568 355.549C370.778 356.342 374.597 361.14 378.055 366.212C384.152 375.152 384.283 375.462 382.4 376.401C379.728 377.734 378.105 381.499 377.914 386.808C377.826 389.266 377.704 391.279 377.642 391.283C377.581 391.287 374.37 387.537 370.507 382.952C363.6 374.752 362.312 373.42 358.955 370.999C357.355 369.846 357.343 369.575 358.73 365.504C360.808 359.402 360.651 359.322 356.12 364.169C352.426 368.121 350.874 368.953 339.277 373.205C318.72 380.742 298.609 385.217 279.603 386.482L273.774 386.87C272.532 386.952 271.761 385.545 272.498 384.542L273.511 383.164L276.086 379.659C276.281 379.394 276.56 379.202 276.877 379.114L293.29 374.588C313.737 368.949 339.54 360.935 351.18 356.606C360.446 353.16 365.483 352.87 369.568 355.549ZM528.916 361.067C553.301 365.038 561.8 368.312 568.589 376.347C580.02 389.878 591.387 412.883 594.774 429.339C596.547 437.954 596.565 441.13 594.872 446.832C590.472 461.657 575.914 470.616 558.038 469.5C548.435 468.901 541.596 465.515 534.503 457.848C530.205 453.202 520.534 438.873 520.534 437.149C520.534 436.797 522.662 435.807 525.264 434.949C535.983 431.418 546.862 421.437 552.458 409.999C558.244 398.174 556.532 394.333 550.232 405.003C544.87 414.083 536.67 421.949 528.47 425.874C522.257 428.849 506.107 432.757 500.025 432.757C497.71 432.757 497.79 432.589 502.271 428.024C517.128 412.889 521.757 390.655 515.313 365.373C514.396 361.779 514.002 358.838 514.437 358.838C514.871 358.838 521.387 359.841 528.916 361.067ZM355.646 375.945C356.55 376.43 360.647 380.79 364.75 385.635C368.852 390.481 377.376 399.719 383.69 406.164C390.006 412.61 395.254 418.492 395.353 419.235C395.762 422.305 395.205 423.776 393.113 425.148C390.522 426.846 368.008 434.56 365.641 434.56C363.931 434.56 348.616 419.526 347.2 416.457C346.623 415.209 346.828 413.708 347.876 411.511C349.638 407.813 349.791 404.568 348.331 401.823C347.756 400.74 344.273 395.869 340.591 390.998C336.91 386.128 334.161 381.877 334.485 381.554C335.405 380.633 350.538 375.191 352.365 375.124C353.264 375.091 354.741 375.461 355.646 375.945ZM337.14 393.621C341.394 399.365 344.868 404.741 344.86 405.566C344.853 406.39 344.282 408.688 343.591 410.671C341.572 416.468 342.604 418.812 351.021 427.549C355.486 432.184 358.347 435.833 357.865 436.275C356.766 437.283 343.233 439.933 335.866 440.582L334.236 440.725C332.85 440.847 332.091 439.149 333.107 438.198L333.504 437.827C336.767 434.773 336.958 434.313 336.405 430.858C335.665 426.224 334.254 423.482 329.54 417.515C325.326 412.18 318.634 407.516 315.191 407.516C313.856 407.516 310.051 409.525 306.152 412.287C300.642 416.192 299.244 417.683 298.455 420.497L298.184 421.463C297.878 422.555 296.499 422.899 295.715 422.078L283.123 408.881C275.22 400.6 268.639 393.519 268.5 393.144C268.359 392.769 273.832 392.221 280.661 391.927C293.914 391.355 309.005 388.909 320.343 385.493C324.174 384.339 327.78 383.346 328.357 383.286C328.935 383.226 332.887 387.877 337.14 393.621ZM411.503 406.555C413.279 409.876 412.478 411.529 407.374 415.075C403.355 417.867 402.173 418.324 401.543 417.329C401.108 416.642 400.747 415.761 400.738 415.371C400.731 414.98 398.864 412.85 396.588 410.638L394.968 409.062C394.036 408.155 394.661 406.574 395.961 406.549L397.264 406.525C399.911 406.475 403.09 406.11 404.328 405.713C408.213 404.469 410.533 404.741 411.503 406.555ZM321.678 417.3C324.731 420.24 325.957 422.126 325.957 423.88C325.957 427.869 324.636 427.585 320.531 422.713C318.404 420.188 315.228 417.523 313.474 416.79L312.637 416.439C311.594 416.004 311.418 414.602 312.319 413.921L312.435 413.833C315.17 411.769 316.422 412.238 321.678 417.3ZM310.272 420.94C314.864 423.742 316.742 434.31 312.909 435.782C310.371 436.757 303.436 427.407 303.436 423.01C303.436 418.718 305.571 418.072 310.272 420.94ZM488.105 440.29C493.802 440.271 499.915 439.983 501.689 439.65C504.863 439.053 504.951 439.119 507.277 443.788C511.232 451.73 513.203 457.55 515.061 466.766C517.586 479.296 518.321 490.275 516.924 494.6C514.289 502.757 505.484 510.566 495.442 513.653C487.96 515.953 476.297 515.73 470.666 513.18C462.471 509.469 455.452 501.674 449.386 489.549C443.891 478.567 443.787 479.233 451.366 476.941C464.674 472.918 478.392 463.963 476.962 460.232C476.464 458.934 476.025 459.05 473.561 461.124C469.759 464.325 463.747 467.289 456.126 469.718C451.271 471.266 447.022 471.81 437.659 472.082C428.195 472.357 425.997 472.213 427.75 471.429C442.413 464.882 448.651 461.231 454.613 455.707C458.162 452.42 462.557 447.31 464.382 444.353L467.199 439.785C467.502 439.293 468.067 439.026 468.639 439.103L472.721 439.65C475.484 440.021 482.407 440.309 488.105 440.29Z" fill="url(#paint0_linear_183_2)"/>
<path fill-rule="evenodd" clip-rule="evenodd" d="M244.432 59.0298C203.859 65.815 170.014 87.3048 148.145 120.165C140.402 131.801 136.263 140.283 131.872 153.514C126.798 168.808 125.843 174.703 125.336 193.872L124.913 209.906C124.891 210.745 124.17 211.394 123.333 211.327L121.032 211.143C113.94 210.576 107.969 215.865 107.961 222.718L107.96 224.367C107.959 225.192 107.277 225.853 106.452 225.829L97.3731 225.561C88.4586 225.297 85.9561 225.54 81.5141 227.103C71.7835 230.527 65.9696 236.804 60.9439 249.311C58.3396 255.794 58.0423 257.479 58.0045 265.988C57.9649 274.835 58.1369 275.769 60.634 280.281C65.7534 289.529 76.5479 296.526 94.1302 301.992C102.193 304.499 104.089 305.524 111.209 311.224C127.938 324.618 147.367 336.226 167.862 345.073C181.219 350.837 198.683 355.409 215.143 357.448C226.665 358.876 247.7 359.18 256.724 358.048L260.792 357.539C261.403 357.463 261.997 357.777 262.277 358.325L266.513 366.605C269.417 372.28 270.951 376.261 270.521 377.008C270.138 377.675 267.862 380.905 265.461 384.189C263.061 387.473 261.098 390.998 261.098 392.025C261.098 395.14 287.964 423.341 304.337 437.412C307.557 440.18 311.926 443.32 314.043 444.391C319.17 446.983 329.854 447.765 340.408 446.322L347.813 445.31C348.306 445.242 348.8 445.43 349.124 445.809L351.767 448.899C365.249 464.66 392.918 475.792 426.649 479.023L436.85 480.001C437.38 480.052 437.841 480.387 438.053 480.875L440.784 487.163C446.505 500.338 454.728 511.56 462.052 516.187C473.953 523.704 492.359 523.959 505.53 516.788C516.918 510.588 523.252 501.642 523.949 490.774C524.778 477.845 520.696 456.733 514.953 444.239C511.027 435.702 512.402 435.661 516.837 444.182C524.496 458.894 535.445 470.117 545.991 474.065C565.82 481.49 590.286 472.508 599.11 454.562C601.921 448.845 602.055 448.099 601.989 438.633C601.931 430.563 601.459 427.179 599.473 420.587C596.555 410.904 587.349 391.498 581.352 382.389C569.207 363.941 561.686 359.856 530.505 354.772C522.791 353.516 515.398 352.268 514.075 352L513.503 351.885C512.571 351.697 512.063 350.683 512.47 349.823L514.739 345.035C518.847 336.369 521.781 324.599 521.04 319.755C519.922 312.449 516.221 305.296 506.309 291.289C505.253 289.796 505.982 289.141 514.326 284.089C528.255 275.657 539.7 266.692 551.337 255.098C560.118 246.348 563.004 244.063 568.673 241.369C599.373 226.779 607.252 210.067 594.605 186.365C590.481 178.635 584.595 172.415 578.637 169.49C574.613 167.514 573.03 167.287 563.774 167.351C556.529 167.402 552.263 167.864 549.586 168.889L547.721 169.602C546.769 169.967 545.746 169.271 545.734 168.251L545.726 167.465C545.657 161.32 540.785 156.922 534.047 156.927C524.845 156.932 514.646 166.342 504.721 183.98C498.97 194.202 498.027 195.385 493.059 198.614C479.089 207.69 434.958 225.159 428.017 224.359L426.786 224.217C426.057 224.133 425.503 223.523 425.49 222.789L425.369 215.875C425.183 205.312 423.316 198.216 418.056 188.08C415.054 182.297 412.078 178.167 407.9 173.988C402.657 168.744 401.857 167.471 400.814 162.719C399.264 155.66 394.135 141.916 389.881 133.427C376.911 107.537 353.064 84.2371 326.819 71.8106C316.266 66.8138 304.52 62.8384 292.933 60.3432C281.643 57.912 255.373 57.2007 244.432 59.0298ZM288.122 66.4343C307.073 69.4749 329.014 78.86 344.804 90.6789C354.514 97.9473 367.635 111.166 373.861 119.953C381.845 131.221 389.666 147.748 393.062 160.529L393.627 162.656C393.882 163.615 393.129 164.544 392.139 164.494L387.56 164.263C383.091 164.037 379.608 164.397 376.714 165.384C374.368 166.184 372.158 166.532 371.802 166.158C371.446 165.783 369.908 162.231 368.384 158.264C355.743 125.381 324.286 94.7841 289.028 81.0811C270.862 74.0209 256.21 71.3256 235.424 71.2192C222.452 71.1534 222.578 70.7045 236.42 67.6747C253.147 64.013 270.445 63.5984 288.122 66.4343ZM263.009 80.3068C309.122 89.6873 348.286 122.547 363.767 164.844L365.532 169.666C365.724 170.19 365.601 170.778 365.214 171.181L363.299 173.183C361.898 174.646 360.496 175.843 360.184 175.843C359.872 175.843 358.885 173.511 357.993 170.659C348.399 140.038 322.668 111.596 291.275 96.9107C262.599 83.497 229.122 81.1839 200.319 90.6257C187.079 94.9662 175.873 101.143 167.492 108.72C165.466 110.551 163.809 111.636 163.809 111.131C163.809 109.443 180.925 93.9782 188.402 88.9121C197.236 82.9264 206.888 79.985 223.713 78.1496C232.012 77.2446 253.85 78.4435 263.009 80.3068ZM249.837 103.887C257.557 105.045 271.092 109.381 275.447 112.091V112.091C276.454 112.718 276.066 114.267 274.883 114.347L269.655 114.697C229.277 117.403 195.463 130.213 176.801 149.875C169.174 157.91 166.434 162.463 162.936 172.913C158.495 186.177 157.253 196.773 157.751 217.157C157.989 226.909 158.465 235.902 158.809 237.142C159.419 239.336 159.372 239.324 157.035 236.691C151.591 230.557 145.965 220.796 143.452 213.122C141.082 205.886 140.84 204.002 140.861 192.97C140.882 182.061 141.178 179.774 143.72 170.885C147.733 156.861 151.963 147.373 158.758 137.159C168.148 123.044 178.807 114.408 193.329 109.149C212.187 102.319 228.972 100.756 249.837 103.887ZM328.5 162.114C337.599 168.229 341.25 180.327 336.86 189.815C329.562 205.591 308.92 202.767 303.844 185.297C301.103 175.861 304.899 165.237 312.43 161.27C317.283 158.714 323.963 159.065 328.5 162.114ZM537.696 165.071C538.986 166.362 539.36 167.519 538.933 168.903C538.012 171.892 535.824 175.974 533.507 179.025C529.805 183.9 529.64 185.48 532.064 192.905C534.163 199.332 534.82 207.956 533.848 216.317C533.37 220.428 535.819 219.356 538.098 214.457C540.869 208.5 541.083 200.525 538.702 191.933L537.242 186.665C537.121 186.23 537.208 185.764 537.476 185.402L539.637 182.487C545.664 174.358 565.993 170.531 575.996 175.643C581.216 178.31 585.895 183.898 589.97 192.33C592.938 198.47 593.501 200.547 593.501 205.347C593.501 217.385 586.393 225.14 566.466 234.845C559.636 238.171 556.636 240.384 549.041 247.693C537.708 258.599 528.102 266.382 516.835 273.788C506.309 280.706 491.483 288.525 488.89 288.525C485.72 288.525 476.733 282.432 471.867 276.984C462.137 266.09 458.049 253.752 457.976 235.064L457.931 223.602C457.929 223.007 458.286 222.471 458.835 222.243L468.548 218.221C482.851 212.297 497.748 204.339 501.717 200.502C503.505 198.772 507.559 192.633 510.725 186.859C518.508 172.664 527.746 163.404 534.272 163.258C535.138 163.239 536.68 164.055 537.696 165.071ZM396.099 173.311V173.311C397.367 173.929 397.074 175.814 395.678 176.017L395.331 176.068C388.358 177.088 383.628 179.653 378.267 185.325C366.417 197.864 362.08 218.929 367.597 237.142C370.365 246.281 375.714 253.882 382.258 257.979V257.979C383.036 258.466 382.69 259.668 381.772 259.667L380.907 259.665C372.727 259.655 362.345 252.084 357.513 242.605C352.427 232.629 350.565 214.639 353.445 203.301C355.606 194.796 360.868 184.957 365.973 179.879C375.223 170.677 385.915 168.345 396.099 173.311ZM404.736 185.103C409.237 187.653 413.511 193.229 416.102 199.928C419.107 207.695 419.128 223.316 416.146 232.423C412.134 244.681 403.986 253.018 395.034 254.028C385.295 255.127 376.305 245.626 373.196 230.95C371.445 222.681 371.588 216.109 373.701 207.841C378.648 188.487 392.631 178.242 404.736 185.103ZM333.117 211.596C335.715 214.902 336.272 217.758 334.943 220.968C332.831 226.07 328.15 226.855 324.086 222.788C318.929 217.628 321.469 209.197 328.178 209.197C330.411 209.197 331.737 209.841 333.117 211.596ZM124.038 218.299C125.599 218.844 126.875 219.826 126.875 220.481C126.875 224.7 134.036 245.498 138.973 255.621C151.022 280.327 167.421 298.396 191.059 313.015C195.89 316.004 199.842 318.639 199.842 318.874C199.842 321.566 186.84 335.141 180.623 338.939C177.473 340.864 176.841 340.952 173.417 339.947C167.297 338.15 145.191 326.67 134.532 319.753C129.082 316.215 120.548 310.053 115.566 306.058C107.258 299.394 105.732 298.549 97.0993 295.824C74.3544 288.644 63.8175 279.35 63.8175 266.464C63.8175 261.659 66.2254 252.998 69.2026 247.096C75.8975 233.826 88.2343 229.206 106.59 233.098C111.739 234.189 113.493 235.046 116.271 237.825L119.144 240.701C119.471 241.027 119.624 241.489 119.557 241.946L118.602 248.508C117.698 254.71 117.758 256.682 119.003 261.727C120.682 268.537 123.905 274.074 126.199 274.09C128.004 274.103 128.133 273.357 126.893 270.092C124.275 263.203 124.163 256.56 126.434 242.98C127.019 239.477 126.84 239.13 121.199 232.835C114.29 225.123 113.306 222.502 116.176 219.446C118.411 217.064 119.883 216.85 124.038 218.299ZM450.27 230.63C450.27 244.136 453.127 257.469 458.389 268.529C461.196 274.428 463.451 277.52 468.951 283.015C472.797 286.857 476.956 290.629 478.193 291.399C480.405 292.774 480.275 292.851 470.398 296.047C459.289 299.641 441.787 303.418 428.65 305.057C422.154 305.868 420.093 306.448 420.093 307.466C420.093 308.443 421.316 308.871 424.597 309.042C430.814 309.368 432.497 309.833 435.226 311.982L436.763 313.191C437.258 313.581 437.448 314.243 437.236 314.836L435.26 320.34C427.224 342.724 413.173 360.068 394.284 370.92L391.262 372.656C390.602 373.036 389.762 372.846 389.329 372.22L383.364 363.603C376.142 353.171 374.825 351.74 370.367 349.482C365.251 346.889 359.682 347.628 343.817 353.006C322.287 360.305 281.486 372.36 278.31 372.36C277.184 372.36 271.816 364.216 265.095 352.309C260.256 343.734 258.063 342.221 258.55 347.795L258.717 349.706C258.788 350.516 258.185 351.228 257.375 351.293L250.288 351.858C233.846 353.168 209.833 350.818 192.914 346.242L188.255 344.981C187.111 344.672 186.79 343.202 187.7 342.444L190.662 339.976C196.9 334.78 200.922 330.275 203.644 325.44C206.004 321.248 205.176 321.226 218.429 325.837C235.148 331.655 243.971 333.064 263.8 333.091C278.555 333.109 283 332.785 291.577 331.06C319.589 325.426 342.927 312.933 363.449 292.587C369.454 286.634 376.655 278.456 379.453 274.413C384.196 267.559 384.834 266.991 388.904 266.014C394.814 264.596 407.491 257.085 412.328 252.138C414.498 249.919 417.954 244.776 420.007 240.71L423.46 233.874C423.64 233.518 423.958 233.251 424.339 233.134L436.33 229.472C443.254 227.357 449.223 225.581 449.595 225.525C449.967 225.469 450.27 227.766 450.27 230.63ZM357.461 255.709C357.475 256.253 355.228 260.297 352.469 264.696C331.62 297.927 297.942 317.622 255.917 321.161C231.671 323.203 218.458 320.417 198.663 309.094C190.287 304.303 188.815 302.662 195.435 305.499C201.978 308.302 215.049 311.833 224.614 313.384C235.678 315.177 261.607 314.656 271.457 312.443C288.083 308.706 305.787 300.723 318.578 291.195C331.047 281.905 343.524 267.109 349.941 253.997L351.506 250.802C351.973 249.847 353.269 249.693 353.947 250.511L354.969 251.743C356.326 253.38 357.448 255.165 357.461 255.709ZM365.616 261.952C366.45 262.708 369.203 264.055 371.732 264.947L374.561 265.944C375.461 266.261 375.822 267.338 375.295 268.133L373.09 271.462C368.461 278.445 350.261 296.236 341.382 302.455C323.194 315.195 300.011 323.912 279.114 325.868V325.868C278.496 325.926 278.335 325.037 278.934 324.874L281.482 324.181C315.033 315.059 341.76 295.638 358.508 268.213C361.072 264.015 363.379 260.579 363.635 260.579C363.89 260.579 364.782 261.197 365.616 261.952ZM505.064 301.37C514.089 314.769 515.606 320.464 512.908 330.814C511.73 335.334 506.245 347.996 504.739 349.673C504.591 349.839 501.294 349.11 497.413 348.055C488.585 345.653 475.283 339.188 470.539 334.991L470.462 334.923C469.984 334.5 470.512 333.746 471.073 334.051V334.051C479.716 338.744 488.802 337.629 496.396 330.939C505.881 322.585 508.281 311.323 502.896 300.441C501.371 297.358 500.244 294.835 500.392 294.835C500.54 294.835 502.642 297.776 505.064 301.37ZM495.279 300.773C499.337 307.474 499.88 313.468 496.946 319.174C494.877 323.199 494.826 323.23 490.331 323.121C484.208 322.974 477.408 319.397 470.341 312.605C461.965 304.557 463.134 308.656 471.665 317.25C476.312 321.932 480.076 324.861 482.921 326.011C487.761 327.966 488.218 328.801 484.903 329.634C478.547 331.23 469.188 326.487 465.546 319.822C462.841 314.872 459.82 311.436 456.202 309.192L455.862 308.981C455.027 308.464 455.243 307.194 456.202 306.981V306.981C463.342 305.395 481.065 300.069 485.853 298.069C488.825 296.828 491.476 295.796 491.743 295.774C492.01 295.753 493.601 298.002 495.279 300.773ZM456.703 318.355C459.895 322.071 460.322 324.941 458.78 332.332C454.684 351.962 446.838 366.863 433.646 380.064C421.377 392.341 409.944 398.559 398.423 399.218C392.63 399.55 391.824 399.377 389.307 397.258C385.849 394.346 384.305 390.702 384.674 386.326C384.954 383.007 385.159 382.831 393.995 378.303C408.88 370.675 420.823 360.076 429.645 346.664C435.688 337.478 436.494 335.73 443.315 317.064C443.83 315.655 445.099 314.18 446.135 313.786C448.748 312.791 453.8 314.975 456.703 318.355ZM473.743 345.308C480.058 349.171 490.729 353.385 500.258 355.78L505.307 357.05C505.808 357.176 506.206 357.557 506.353 358.053L507.488 361.876C513.838 383.272 512.456 403.179 503.744 415.831C499.722 421.673 492.633 428.067 487.204 430.75C483.336 432.662 481.167 433.151 477.309 432.98C469.823 432.647 462.413 431.12 453.141 427.999C447.479 426.094 444.374 425.455 443.59 426.037C442.95 426.51 440.442 428.394 438.016 430.222C432.83 434.13 423.022 439.079 416.039 441.311C410.257 443.159 408.978 444.081 410.323 445.427C412.363 447.468 432.372 441.066 441.504 435.451L445.222 433.165C445.589 432.94 446.037 432.887 446.447 433.022L452.99 435.18C456.944 436.484 460.179 437.847 460.179 438.209C460.179 438.572 458.374 441.324 456.167 444.323C448.655 454.535 437.18 461.663 421.83 465.654C407.594 469.356 398.872 468.549 383.644 462.123C377.528 459.541 361.089 449.627 361.089 448.519C361.089 448.327 364.534 448.413 368.746 448.71C376.026 449.225 376.403 449.161 376.403 447.415C376.403 445.917 375.319 445.285 370.547 443.992C367.327 443.119 364.692 442.125 364.692 441.782C364.692 441.438 366.82 440.667 369.421 440.069C372.023 439.47 378.812 437.265 384.51 435.169C392.965 432.058 396.821 429.972 405.486 423.826C411.324 419.685 416.696 415.447 417.422 414.41C419.114 411.99 419.093 409.202 417.348 405.023C416.581 403.187 416.316 401.565 416.757 401.417C417.198 401.27 420.765 399.053 424.681 396.489C441.693 385.355 456.648 364.911 462.581 344.676C464.146 339.333 464.304 339.138 466.029 340.386C467.023 341.106 470.495 343.321 473.743 345.308ZM369.568 355.549C370.778 356.342 374.597 361.14 378.055 366.212C384.152 375.152 384.283 375.462 382.4 376.401C379.728 377.734 378.105 381.499 377.914 386.808C377.826 389.266 377.704 391.279 377.642 391.283C377.581 391.287 374.37 387.537 370.507 382.952C363.6 374.752 362.312 373.42 358.955 370.999C357.355 369.846 357.343 369.575 358.73 365.504C360.808 359.402 360.651 359.322 356.12 364.169C352.426 368.121 350.874 368.953 339.277 373.205C318.72 380.742 298.609 385.217 279.603 386.482L273.774 386.87C272.532 386.952 271.761 385.545 272.498 384.542L273.511 383.164L276.086 379.659C276.281 379.394 276.56 379.202 276.877 379.114L293.29 374.588C313.737 368.949 339.54 360.935 351.18 356.606C360.446 353.16 365.483 352.87 369.568 355.549ZM528.916 361.067C553.301 365.038 561.8 368.312 568.589 376.347C580.02 389.878 591.387 412.883 594.774 429.339C596.547 437.954 596.565 441.13 594.872 446.832C590.472 461.657 575.914 470.616 558.038 469.5C548.435 468.901 541.596 465.515 534.503 457.848C530.205 453.202 520.534 438.873 520.534 437.149C520.534 436.797 522.662 435.807 525.264 434.949C535.983 431.418 546.862 421.437 552.458 409.999C558.244 398.174 556.532 394.333 550.232 405.003C544.87 414.083 536.67 421.949 528.47 425.874C522.257 428.849 506.107 432.757 500.025 432.757C497.71 432.757 497.79 432.589 502.271 428.024C517.128 412.889 521.757 390.655 515.313 365.373C514.396 361.779 514.002 358.838 514.437 358.838C514.871 358.838 521.387 359.841 528.916 361.067ZM355.646 375.945C356.55 376.43 360.647 380.79 364.75 385.635C368.852 390.481 377.376 399.719 383.69 406.164C390.006 412.61 395.254 418.492 395.353 419.235C395.762 422.305 395.205 423.776 393.113 425.148C390.522 426.846 368.008 434.56 365.641 434.56C363.931 434.56 348.616 419.526 347.2 416.457C346.623 415.209 346.828 413.708 347.876 411.511C349.638 407.813 349.791 404.568 348.331 401.823C347.756 400.74 344.273 395.869 340.591 390.998C336.91 386.128 334.161 381.877 334.485 381.554C335.405 380.633 350.538 375.191 352.365 375.124C353.264 375.091 354.741 375.461 355.646 375.945ZM337.14 393.621C341.394 399.365 344.868 404.741 344.86 405.566C344.853 406.39 344.282 408.688 343.591 410.671C341.572 416.468 342.604 418.812 351.021 427.549C355.486 432.184 358.347 435.833 357.865 436.275C356.766 437.283 343.233 439.933 335.866 440.582L334.236 440.725C332.85 440.847 332.091 439.149 333.107 438.198L333.504 437.827C336.767 434.773 336.958 434.313 336.405 430.858C335.665 426.224 334.254 423.482 329.54 417.515C325.326 412.18 318.634 407.516 315.191 407.516C313.856 407.516 310.051 409.525 306.152 412.287C300.642 416.192 299.244 417.683 298.455 420.497L298.184 421.463C297.878 422.555 296.499 422.899 295.715 422.078L283.123 408.881C275.22 400.6 268.639 393.519 268.5 393.144C268.359 392.769 273.832 392.221 280.661 391.927C293.914 391.355 309.005 388.909 320.343 385.493C324.174 384.339 327.78 383.346 328.357 383.286C328.935 383.226 332.887 387.877 337.14 393.621ZM411.503 406.555C413.279 409.876 412.478 411.529 407.374 415.075C403.355 417.867 402.173 418.324 401.543 417.329C401.108 416.642 400.747 415.761 400.738 415.371C400.731 414.98 398.864 412.85 396.588 410.638L394.968 409.062C394.036 408.155 394.661 406.574 395.961 406.549L397.264 406.525C399.911 406.475 403.09 406.11 404.328 405.713C408.213 404.469 410.533 404.741 411.503 406.555ZM321.678 417.3C324.731 420.24 325.957 422.126 325.957 423.88C325.957 427.869 324.636 427.585 320.531 422.713C318.404 420.188 315.228 417.523 313.474 416.79L312.637 416.439C311.594 416.004 311.418 414.602 312.319 413.921L312.435 413.833C315.17 411.769 316.422 412.238 321.678 417.3ZM310.272 420.94C314.864 423.742 316.742 434.31 312.909 435.782C310.371 436.757 303.436 427.407 303.436 423.01C303.436 418.718 305.571 418.072 310.272 420.94ZM488.105 440.29C493.802 440.271 499.915 439.983 501.689 439.65C504.863 439.053 504.951 439.119 507.277 443.788C511.232 451.73 513.203 457.55 515.061 466.766C517.586 479.296 518.321 490.275 516.924 494.6C514.289 502.757 505.484 510.566 495.442 513.653C487.96 515.953 476.297 515.73 470.666 513.18C462.471 509.469 455.452 501.674 449.386 489.549C443.891 478.567 443.787 479.233 451.366 476.941C464.674 472.918 478.392 463.963 476.962 460.232C476.464 458.934 476.025 459.05 473.561 461.124C469.759 464.325 463.747 467.289 456.126 469.718C451.271 471.266 447.022 471.81 437.659 472.082C428.195 472.357 425.997 472.213 427.75 471.429C442.413 464.882 448.651 461.231 454.613 455.707C458.162 452.42 462.557 447.31 464.382 444.353L467.199 439.785C467.502 439.293 468.067 439.026 468.639 439.103L472.721 439.65C475.484 440.021 482.407 440.309 488.105 440.29Z" stroke="url(#paint1_linear_183_2)" stroke-opacity="0.5" stroke-width="1.19732" mask="url(#path-1-inside-1_183_2)"/>
</g>
<defs>
<filter id="filter0_ddddiiiiii_183_2" x="0.628605" y="0.628605" width="658.743" height="578.743" filterUnits="userSpaceOnUse" color-interpolation-filters="sRGB">
<feFlood flood-opacity="0" result="BackgroundImageFix"/>
<feColorMatrix in="SourceAlpha" type="matrix" values="0 0 0 0 0 0 0 0 0 0 0 0 0 0 0 0 0 0 127 0" result="hardAlpha"/>
<feOffset/>
<feGaussianBlur stdDeviation="24.3941"/>
<feComposite in2="hardAlpha" operator="out"/>
<feColorMatrix type="matrix" values="0 0 0 0 1 0 0 0 0 1 0 0 0 0 1 0 0 0 0.04 0"/>
<feBlend mode="normal" in2="BackgroundImageFix" result="effect1_dropShadow_183_2"/>
<feColorMatrix in="SourceAlpha" type="matrix" values="0 0 0 0 0 0 0 0 0 0 0 0 0 0 0 0 0 0 127 0" result="hardAlpha"/>
<feOffset/>
<feGaussianBlur stdDeviation="28.6857"/>
<feComposite in2="hardAlpha" operator="out"/>
<feColorMatrix type="matrix" values="0 0 0 0 0.616667 0 0 0 0 0.483333 0 0 0 0 1 0 0 0 0.14 0"/>
<feBlend mode="normal" in2="effect1_dropShadow_183_2" result="effect2_dropShadow_183_2"/>
<feColorMatrix in="SourceAlpha" type="matrix" values="0 0 0 0 0 0 0 0 0 0 0 0 0 0 0 0 0 0 127 0" result="hardAlpha"/>
<feOffset/>
<feGaussianBlur stdDeviation="12.1971"/>
<feComposite in2="hardAlpha" operator="out"/>
<feColorMatrix type="matrix" values="0 0 0 0 0.236559 0 0 0 0 0 0 0 0 0 0.916667 0 0 0 0.03 0"/>
<feBlend mode="normal" in2="effect2_dropShadow_183_2" result="effect3_dropShadow_183_2"/>
<feColorMatrix in="SourceAlpha" type="matrix" values="0 0 0 0 0 0 0 0 0 0 0 0 0 0 0 0 0 0 127 0" result="hardAlpha"/>
<feOffset dy="9.39142"/>
<feGaussianBlur stdDeviation="8.35725"/>
<feComposite in2="hardAlpha" operator="out"/>
<feColorMatrix type="matrix" values="0 0 0 0 0.501786 0 0 0 0 0.325 0 0 0 0 1 0 0 0 0.29 0"/>
<feBlend mode="normal" in2="effect3_dropShadow_183_2" result="effect4_dropShadow_183_2"/>
<feBlend mode="normal" in="SourceGraphic" in2="effect4_dropShadow_183_2" result="shape"/>
<feColorMatrix in="SourceAlpha" type="matrix" values="0 0 0 0 0 0 0 0 0 0 0 0 0 0 0 0 0 0 127 0" result="hardAlpha"/>
<feOffset dy="8.89713"/>
<feGaussianBlur stdDeviation="12.11"/>
<feComposite in2="hardAlpha" operator="arithmetic" k2="-1" k3="1"/>
<feColorMatrix type="matrix" values="0 0 0 0 0.838166 0 0 0 0 0.788802 0 0 0 0 0.970833 0 0 0 1 0"/>
<feBlend mode="normal" in2="shape" result="effect5_innerShadow_183_2"/>
<feColorMatrix in="SourceAlpha" type="matrix" values="0 0 0 0 0 0 0 0 0 0 0 0 0 0 0 0 0 0 127 0" result="hardAlpha"/>
<feOffset dx="-0.494285" dy="3.95428"/>
<feGaussianBlur stdDeviation="2.71857"/>
<feComposite in2="hardAlpha" operator="arithmetic" k2="-1" k3="1"/>
<feColorMatrix type="matrix" values="0 0 0 0 1 0 0 0 0 1 0 0 0 0 1 0 0 0 0.3 0"/>
<feBlend mode="normal" in2="effect5_innerShadow_183_2" result="effect6_innerShadow_183_2"/>
<feColorMatrix in="SourceAlpha" type="matrix" values="0 0 0 0 0 0 0 0 0 0 0 0 0 0 0 0 0 0 127 0" result="hardAlpha"/>
<feOffset dx="0.451743" dy="0.451743"/>
<feGaussianBlur stdDeviation="2.25872"/>
<feComposite in2="hardAlpha" operator="arithmetic" k2="-1" k3="1"/>
<feColorMatrix type="matrix" values="0 0 0 0 0.915603 0 0 0 0 0.883333 0 0 0 0 1 0 0 0 1 0"/>
<feBlend mode="normal" in2="effect6_innerShadow_183_2" result="effect7_innerShadow_183_2"/>
<feColorMatrix in="SourceAlpha" type="matrix" values="0 0 0 0 0 0 0 0 0 0 0 0 0 0 0 0 0 0 127 0" result="hardAlpha"/>
<feOffset dy="-20.76"/>
<feGaussianBlur stdDeviation="28.4598"/>
<feComposite in2="hardAlpha" operator="arithmetic" k2="-1" k3="1"/>
<feColorMatrix type="matrix" values="0 0 0 0 0.225695 0 0 0 0 0 0 0 0 0 0.833333 0 0 0 0.21 0"/>
<feBlend mode="normal" in2="effect7_innerShadow_183_2" result="effect8_innerShadow_183_2"/>
<feColorMatrix in="SourceAlpha" type="matrix" values="0 0 0 0 0 0 0 0 0 0 0 0 0 0 0 0 0 0 127 0" result="hardAlpha"/>
<feOffset dy="-34.1057"/>
<feGaussianBlur stdDeviation="15.57"/>
<feComposite in2="hardAlpha" operator="arithmetic" k2="-1" k3="1"/>
<feColorMatrix type="matrix" values="0 0 0 0 0.600863 0 0 0 0 0.030625 0 0 0 0 0.6125 0 0 0 0.11 0"/>
<feBlend mode="normal" in2="effect8_innerShadow_183_2" result="effect9_innerShadow_183_2"/>
<feColorMatrix in="SourceAlpha" type="matrix" values="0 0 0 0 0 0 0 0 0 0 0 0 0 0 0 0 0 0 127 0" result="hardAlpha"/>
<feOffset dy="-8.89713"/>
<feGaussianBlur stdDeviation="4.44857"/>
<feComposite in2="hardAlpha" operator="arithmetic" k2="-1" k3="1"/>
<feColorMatrix type="matrix" values="0 0 0 0 0.5 0 0 0 0 0 0 0 0 0 1 0 0 0 0.12 0"/>
<feBlend mode="normal" in2="effect9_innerShadow_183_2" result="effect10_innerShadow_183_2"/>
</filter>
<linearGradient id="paint0_linear_183_2" x1="258.421" y1="58" x2="251.945" y2="306.204" gradientUnits="userSpaceOnUse">
<stop stop-color="#F0AEFF"/>
<stop offset="1" stop-color="white"/>
</linearGradient>
<linearGradient id="paint1_linear_183_2" x1="330" y1="58" x2="330.463" y2="542.853" gradientUnits="userSpaceOnUse">
<stop stop-color="white"/>
<stop offset="1" stop-color="white" stop-opacity="0"/>
</linearGradient>
</defs>
</svg>
